<svg xmlns="http://www.w3.org/2000/svg" width="1280" height="480" viewBox="0 0 1280 480"><rect width="1280" height="480" fill="#ffe14d"/><rect x="0" y="0" width="2" height="480" fill="#111" opacity=".06"/><rect x="64" y="0" width="2" height="480" fill="#111" opacity=".06"/><rect x="128" y="0" width="2" height="480" fill="#111" opacity=".06"/><rect x="192" y="0" width="2" height="480" fill="#111" opacity=".06"/><rect x="256" y="0" width="2" height="480" fill="#111" opacity=".06"/><rect x="320" y="0" width="2" height="480" fill="#111" opacity=".06"/><rect x="384" y="0" width="2" height="480" fill="#111" opacity=".06"/><rect x="448" y="0" width="2" height="480" fill="#111" opacity=".06"/><rect x="512" y="0" width="2" height="480" fill="#111" opacity=".06"/><rect x="576" y="0" width="2" height="480" fill="#111" opacity=".06"/><rect x="640" y="0" width="2" height="480" fill="#111" opacity=".06"/><rect x="704" y="0" width="2" height="480" fill="#111" opacity=".06"/><rect x="768" y="0" width="2" height="480" fill="#111" opacity=".06"/><rect x="832" y="0" width="2" height="480" fill="#111" opacity=".06"/><rect x="896" y="0" width="2" height="480" fill="#111" opacity=".06"/><rect x="960" y="0" width="2" height="480" fill="#111" opacity=".06"/><rect x="1024" y="0" width="2" height="480" fill="#111" opacity=".06"/><rect x="1088" y="0" width="2" height="480" fill="#111" opacity=".06"/><rect x="1152" y="0" width="2" height="480" fill="#111" opacity=".06"/><rect x="1216" y="0" width="2" height="480" fill="#111" opacity=".06"/><rect x="1280" y="0" width="2" height="480" fill="#111" opacity=".06"/><text x="56" y="90" font-family="Courier New,monospace" font-size="26" fill="#111" text-anchor="start" font-weight="700">CLI + MCP  /  ZERO DEPENDENCIES  /  UNOFFICIAL</text><text x="52" y="220" font-family="Impact,Arial Black,sans-serif" font-size="150" fill="#111" text-anchor="start" >JEVKIT</text><text x="56" y="292" font-family="Impact,Arial Black,sans-serif" font-size="40" fill="#111" text-anchor="start" >FAST TYPED DECISIONS FOR AGENTS</text><rect x="62" y="346" width="114" height="58" fill="#111"/><rect x="56" y="340" width="114" height="58" fill="#7cc4ff" stroke="#111" stroke-width="4"/><text x="113.0" y="381" font-family="Impact,Arial Black,sans-serif" font-size="28" fill="#111" text-anchor="middle" >ROUTE</text><rect x="192" y="346" width="132" height="58" fill="#111"/><rect x="186" y="340" width="132" height="58" fill="#ff8fb8" stroke="#111" stroke-width="4"/><text x="252.0" y="381" font-family="Impact,Arial Black,sans-serif" font-size="28" fill="#111" text-anchor="middle" >TRIAGE</text><rect x="340" y="346" width="114" height="58" fill="#111"/><rect x="334" y="340" width="114" height="58" fill="#b9f27c" stroke="#111" stroke-width="4"/><text x="391.0" y="381" font-family="Impact,Arial Black,sans-serif" font-size="28" fill="#111" text-anchor="middle" >GUARD</text><rect x="470" y="346" width="96" height="58" fill="#111"/><rect x="464" y="340" width="96" height="58" fill="#c9a7ff" stroke="#111" stroke-width="4"/><text x="512.0" y="381" font-family="Impact,Arial Black,sans-serif" font-size="28" fill="#111" text-anchor="middle" >GREP</text><rect x="582" y="346" width="96" height="58" fill="#111"/><rect x="576" y="340" width="96" height="58" fill="#ffb45c" stroke="#111" stroke-width="4"/><text x="624.0" y="381" font-family="Impact,Arial Black,sans-serif" font-size="28" fill="#111" text-anchor="middle" >RANK</text><rect x="694" y="346" width="150" height="58" fill="#111"/><rect x="688" y="340" width="150" height="58" fill="#7cf2d4" stroke="#111" stroke-width="4"/><text x="763.0" y="381" font-family="Impact,Arial Black,sans-serif" font-size="28" fill="#111" text-anchor="middle" >COMPACT</text><rect x="940" y="70" width="300" height="330" fill="#111"/><rect x="930" y="60" width="300" height="330" fill="#fff" stroke="#111" stroke-width="5"/><rect x="930" y="60" width="300" height="46" fill="#111" stroke="#111" stroke-width="5"/><text x="946" y="95" font-family="Impact,Arial Black,sans-serif" font-size="26" fill="#ffe14d" text-anchor="start" >JEV SAYS</text><text x="950" y="150" font-family="Courier New,monospace" font-size="20" fill="#111" text-anchor="start" font-weight="700">destructive</text><text x="1212" y="150" font-family="Impact,Arial Black,sans-serif" font-size="26" fill="#111" text-anchor="end" >0.97</text><text x="950" y="212" font-family="Courier New,monospace" font-size="20" fill="#111" text-anchor="start" font-weight="700">exfiltration</text><text x="1212" y="212" font-family="Impact,Arial Black,sans-serif" font-size="26" fill="#111" text-anchor="end" >0.03</text><text x="950" y="274" font-family="Courier New,monospace" font-size="20" fill="#111" text-anchor="start" font-weight="700">risk</text><text x="1212" y="274" font-family="Impact,Arial Black,sans-serif" font-size="26" fill="#111" text-anchor="end" >3.98 / 4</text><text x="950" y="336" font-family="Courier New,monospace" font-size="20" fill="#111" text-anchor="start" font-weight="700">verdict</text><text x="1212" y="336" font-family="Impact,Arial Black,sans-serif" font-size="34" fill="#c1121f" text-anchor="end" >DENY</text><text x="56" y="456" font-family="Courier New,monospace" font-size="16" fill="#111" text-anchor="start" font-weight="700">NUMBERS IN, DECISIONS OUT. NO TEXT GENERATED.</text></svg>